<svg width="154" height="30" viewBox="0 0 154 30" fill="none" xmlns="http://www.w3.org/2000/svg">
<path fill-rule="evenodd" clip-rule="evenodd" d="M150.875 11.88H153C153.553 11.88 154 12.3626 154 12.96V25.92C154 26.5174 153.553 27 153 27H133C132.447 27 132 26.5174 132 25.92V12.96C132 12.3626 132.447 11.88 133 11.88H135.125V4.32C135.125 1.93388 136.916 0 139.125 0H146.875C149.084 0 150.875 1.93388 150.875 4.32V11.88ZM143.875 21.6675V19.8787C144.133 19.6787 144.326 19.3955 144.425 19.0697C144.524 18.744 144.525 18.3926 144.428 18.0662C144.331 17.7397 144.14 17.455 143.884 17.253C143.627 17.051 143.318 16.9422 143 16.9422C142.682 16.9422 142.373 17.051 142.116 17.253C141.86 17.455 141.669 17.7397 141.572 18.0662C141.475 18.3926 141.476 18.744 141.575 19.0697C141.674 19.3955 141.867 19.6787 142.125 19.8787V21.6675C142.125 21.816 142.238 21.9375 142.375 21.9375H143.625C143.762 21.9375 143.875 21.816 143.875 21.6675ZM137.375 11.88H148.625V4.32C148.625 3.27713 147.841 2.43 146.875 2.43H139.125C138.159 2.43 137.375 3.27713 137.375 4.32V11.88ZM4.228 24.804C5.72133 25.196 7.26133 25.392 8.848 25.392C10.7147 25.392 12.3013 25.112 13.608 24.552C14.9147 23.9733 15.8947 23.208 16.548 22.256C17.2013 21.304 17.528 20.24 17.528 19.064C17.528 17.7013 17.164 16.628 16.436 15.844C15.7267 15.0413 14.8773 14.4627 13.888 14.108C12.9173 13.7347 11.6853 13.3893 10.192 13.072C8.86667 12.792 7.90533 12.5213 7.308 12.26C6.71067 11.9987 6.412 11.6067 6.412 11.084C6.412 10.5613 6.664 10.1413 7.168 9.824C7.672 9.488 8.47467 9.32 9.576 9.32C11.3307 9.32 13.1413 9.824 15.008 10.832L16.716 6.716C15.764 6.156 14.6627 5.736 13.412 5.456C12.1613 5.15733 10.892 5.008 9.604 5.008C7.71867 5.008 6.12267 5.288 4.816 5.848C3.528 6.408 2.55733 7.17333 1.904 8.144C1.25067 9.096 0.924 10.1693 0.924 11.364C0.924 12.7267 1.27867 13.8093 1.988 14.612C2.69733 15.4147 3.54667 16.0027 4.536 16.376C5.52533 16.7307 6.75733 17.0667 8.232 17.384C9.576 17.6827 10.5467 17.972 11.144 18.252C11.76 18.5133 12.068 18.924 12.068 19.484C12.068 20.548 11.004 21.08 8.876 21.08C7.756 21.08 6.61733 20.9027 5.46 20.548C4.30267 20.1933 3.28533 19.7267 2.408 19.148L0.588 23.236C1.52133 23.8893 2.73467 24.412 4.228 24.804ZM35.2649 18.756C35.3209 17.916 35.3489 17.4773 35.3489 17.44C35.3489 15.816 34.9849 14.416 34.2569 13.24C33.5476 12.0453 32.5769 11.14 31.3449 10.524C30.1129 9.88933 28.7409 9.572 27.2289 9.572C25.6422 9.572 24.2142 9.908 22.9449 10.58C21.6756 11.252 20.6769 12.1853 19.9489 13.38C19.2396 14.556 18.8849 15.8907 18.8849 17.384C18.8849 18.896 19.2489 20.2493 19.9769 21.444C20.7236 22.6387 21.7689 23.572 23.1129 24.244C24.4569 24.916 26.0156 25.252 27.7889 25.252C30.6262 25.252 32.7822 24.4307 34.2569 22.788L31.4569 19.876C30.9156 20.3427 30.3742 20.6787 29.8329 20.884C29.3102 21.0893 28.6849 21.192 27.9569 21.192C26.9862 21.192 26.1742 20.9867 25.5209 20.576C24.8862 20.1467 24.4569 19.54 24.2329 18.756H35.2649ZM25.1849 14.052C25.7449 13.5853 26.4356 13.352 27.2569 13.352C28.0782 13.352 28.7596 13.5853 29.3009 14.052C29.8609 14.5187 30.2156 15.1533 30.3649 15.956H24.1489C24.2982 15.1533 24.6436 14.5187 25.1849 14.052ZM41.0498 24.244C42.3751 24.916 43.8778 25.252 45.5578 25.252C47.2751 25.252 48.7591 24.888 50.0098 24.16C51.2604 23.4133 52.1471 22.3867 52.6698 21.08L48.5537 18.98C47.8631 20.3427 46.8551 21.024 45.5298 21.024C44.5778 21.024 43.7844 20.7067 43.1497 20.072C42.5337 19.4187 42.2257 18.5227 42.2257 17.384C42.2257 16.264 42.5337 15.3867 43.1497 14.752C43.7844 14.1173 44.5778 13.8 45.5298 13.8C46.8551 13.8 47.8631 14.4813 48.5537 15.844L52.6698 13.744C52.1471 12.4373 51.2604 11.42 50.0098 10.692C48.7591 9.94533 47.2751 9.572 45.5578 9.572C43.8778 9.572 42.3751 9.908 41.0498 10.58C39.7244 11.2333 38.6884 12.1573 37.9417 13.352C37.2137 14.528 36.8498 15.872 36.8498 17.384C36.8498 18.896 37.2137 20.2493 37.9417 21.444C38.6884 22.6387 39.7244 23.572 41.0498 24.244ZM70.6328 25V9.824H65.3128V17.132C65.3128 18.3453 65.0422 19.2507 64.5008 19.848C63.9782 20.4267 63.2968 20.716 62.4568 20.716C61.6355 20.716 61.0102 20.4547 60.5808 19.932C60.1515 19.4093 59.9368 18.5787 59.9368 17.44V9.824H54.6168V18.308C54.6168 20.6227 55.1955 22.3587 56.3528 23.516C57.5288 24.6733 59.0968 25.252 61.0568 25.252C61.9342 25.252 62.7648 25.0933 63.5488 24.776C64.3328 24.4587 65.0048 23.992 65.5648 23.376V25H70.6328ZM81.2276 10.104C80.3689 10.44 79.6689 10.9533 79.1276 11.644V9.824H74.0596V25H79.3796V18.028C79.3796 16.7587 79.6969 15.816 80.3316 15.2C80.9849 14.584 81.8809 14.276 83.0196 14.276C83.3369 14.276 83.7382 14.304 84.2236 14.36V9.572C83.1036 9.572 82.1049 9.74933 81.2276 10.104ZM102.434 25V9.824H97.1136V17.132C97.1136 18.3453 96.843 19.2507 96.3016 19.848C95.779 20.4267 95.0976 20.716 94.2576 20.716C93.4363 20.716 92.811 20.4547 92.3816 19.932C91.9523 19.4093 91.7376 18.5787 91.7376 17.44V9.824H86.4176V18.308C86.4176 20.6227 86.9963 22.3587 88.1536 23.516C89.3296 24.6733 90.8976 25.252 92.8576 25.252C93.735 25.252 94.5656 25.0933 95.3496 24.776C96.1336 24.4587 96.8056 23.992 97.3656 23.376V25H102.434ZM107.624 24.832C108.856 25.112 110.107 25.252 111.376 25.252C112.963 25.252 114.316 25.0373 115.436 24.608C116.575 24.1787 117.434 23.5907 118.012 22.844C118.591 22.0787 118.88 21.22 118.88 20.268C118.88 19.1107 118.572 18.2147 117.956 17.58C117.359 16.9267 116.65 16.4787 115.828 16.236C115.007 15.9933 113.971 15.7787 112.72 15.592C111.731 15.4427 111.022 15.3027 110.592 15.172C110.163 15.0227 109.948 14.7707 109.948 14.416C109.948 14.0987 110.144 13.8467 110.536 13.66C110.928 13.4547 111.544 13.352 112.384 13.352C113.952 13.352 115.408 13.7253 116.752 14.472L118.348 10.86C117.62 10.4493 116.715 10.132 115.632 9.908C114.55 9.684 113.458 9.572 112.356 9.572C110.807 9.572 109.472 9.796 108.352 10.244C107.251 10.6733 106.411 11.2707 105.832 12.036C105.254 12.7827 104.964 13.6413 104.964 14.612C104.964 15.788 105.272 16.7027 105.888 17.356C106.504 18.0093 107.232 18.4573 108.072 18.7C108.931 18.9427 109.967 19.1387 111.18 19.288C112.132 19.4187 112.823 19.5587 113.252 19.708C113.7 19.8387 113.924 20.072 113.924 20.408C113.924 20.744 113.738 21.0053 113.364 21.192C113.01 21.36 112.403 21.444 111.544 21.444C110.611 21.444 109.668 21.3227 108.716 21.08C107.764 20.8187 106.943 20.4733 106.252 20.044L104.656 23.684C105.403 24.1507 106.392 24.5333 107.624 24.832ZM119.468 27.8H0V29.2H119.468V27.8Z" fill="black"/>
</svg>
